<svg xmlns="http://www.w3.org/2000/svg" viewBox="0 0 24 24" width="24" height="24" role="img">
  <title>Sundry merchant</title>
  <defs>
  <mask id="merchantMask">
    <rect width="24" height="24" fill="white"/>
    
    <rect x="8" y="13" width="3.2" height="5.2" rx=".5" fill="black"/>
    <rect x="13.2" y="13" width="3.1" height="3.1" rx=".5" fill="black"/>

  </mask>
</defs>
  
  <path fill="currentColor" mask="url(#merchantMask)" d="M5 9.2h14v10.3H5V9.2Z"/>
  <path fill="currentColor" d="
    M4.1 4.3h15.8l1 4.2c-.6 1.6-1.7 2.4-3.2 2.4-1.2 0-2.1-.45-2.7-1.35-.65.9-1.65 1.35-3 1.35s-2.35-.45-3-1.35c-.6.9-1.5 1.35-2.7 1.35-1.5 0-2.6-.8-3.2-2.4l1-4.2Z"/>

</svg>
