<svg xmlns="http://www.w3.org/2000/svg" aria-hidden="true" style="display:none"><symbol id="icon-receipt-scan" viewBox="0 0 24 24"><defs>
  <mask id="receipt-scan-receiptScanMask">
    <rect width="24" height="24" fill="white"/>
    
    <rect x="9.2" y="9.2" width="5.6" height="1.55" rx=".75" fill="black"/>
    <rect x="9.2" y="12.4" width="5.6" height="1.55" rx=".75" fill="black"/>

  </mask>
</defs>
  <path fill="currentColor" mask="url(#receipt-scan-receiptScanMask)" d="
    M8.4 5.7h7.2q1 0 1 1v10.9
    l-1.2 1.5-1.45-1.2-1.45 1.2-1.45-1.2-1.45 1.2-1.2-1.5V6.7q0-1 1-1Z"/>
  <path fill="currentColor" d="
    M3.2 7.6V4.8q0-1.6 1.6-1.6h2.8v2H5.4q-.2 0-.2.2v2.2h-2Z
    M16.4 3.2h2.8q1.6 0 1.6 1.6v2.8h-2V5.4q0-.2-.2-.2h-2.2v-2Z
    M3.2 16.4h2v2.2q0 .2.2.2h2.2v2H4.8q-1.6 0-1.6-1.6v-2.8Z
    M18.8 16.4h2v2.8q0 1.6-1.6 1.6h-2.8v-2h2.2q.2 0 .2-.2v-2.2Z"/>
</symbol><symbol id="icon-compose" viewBox="0 0 24 24"><defs>
  <mask id="compose-composeMask">
    <rect width="24" height="24" fill="white"/>
    <rect x="7.2" y="8.2" width="1.7" height="1.7" rx=".45" fill="black"/>
    <rect x="10.3" y="8.2" width="1.7" height="1.7" rx=".45" fill="black"/>
    <rect x="13.4" y="8.2" width="1.7" height="1.7" rx=".45" fill="black"/>
    <rect x="16.5" y="8.2" width="1.7" height="1.7" rx=".45" fill="black"/>
    <rect x="8.0" y="11.3" width="1.7" height="1.7" rx=".45" fill="black"/>
    <rect x="11.1" y="11.3" width="1.7" height="1.7" rx=".45" fill="black"/>
    <rect x="14.2" y="11.3" width="1.7" height="1.7" rx=".45" fill="black"/>
    <rect x="8.1" y="15" width="7.8" height="1.7" rx=".8" fill="black"/>
  </mask>
</defs>
  <rect x="3.4" y="5.1" width="17.2" height="13.8" rx="3.2"
        fill="currentColor" mask="url(#compose-composeMask)"/>
</symbol><symbol id="icon-receipt-view" viewBox="0 0 24 24"><defs>
  <mask id="receipt-view-receiptViewMask">
    <rect width="24" height="24" fill="white"/>
    
    <path d="M8.2 12c1.4-2 2.7-3 3.8-3s2.4 1 3.8 3c-1.4 2-2.7 3-3.8 3s-2.4-1-3.8-3Z" fill="black"/>

  </mask>
</defs>
  <path fill="currentColor" mask="url(#receipt-view-receiptViewMask)" d="
    M6.2 3.3h11.6q1.1 0 1.1 1.1v13.1
    l-1.45 2.1-1.8-1.45-1.8 1.45-1.8-1.45-1.8 1.45-1.8-1.45-1.45 2.1V4.4q0-1.1 1.1-1.1Z"/>
  <circle cx="12" cy="12" r="1.15" fill="currentColor"/>
</symbol><symbol id="icon-sign-out" viewBox="0 0 24 24"><defs>
  <mask id="sign-out-signOutMask">
    <rect width="24" height="24" fill="white"/>
    
    <rect x="6.8" y="6.7" width="4.2" height="10.6" rx=".7" fill="black"/>

  </mask>
</defs>
  <path fill="currentColor" mask="url(#sign-out-signOutMask)" d="M4.1 3.4h9.2q1.1 0 1.1 1.1v15q0 1.1-1.1 1.1H4.1V3.4Z"/>
  <path fill="currentColor" d="M12.4 10.6h5.1l-1.8-1.8 1.6-1.6 4.5 4.8-4.5 4.8-1.6-1.6 1.8-1.8h-5.1v-2.8Z"/>
</symbol><symbol id="icon-retry" viewBox="0 0 24 24"><defs>
  <mask id="retry-retryMask">
    <rect width="24" height="24" fill="white"/>
    
    <circle cx="12" cy="12" r="5.15" fill="black"/>
    <path d="M15.8 3.6h5.3v5.6h-5.3Z" fill="black"/>

  </mask>
</defs>
  <circle cx="12" cy="12" r="8.8" fill="currentColor" mask="url(#retry-retryMask)"/>
  <path fill="currentColor" d="M15.7 3.6h5.4v5.4l-2.15-1.85A7.2 7.2 0 0 0 7.3 8.4L5.5 6.8a9.6 9.6 0 0 1 14.95-1.4L21.1 3.6h-5.4Z"/>
</symbol><symbol id="icon-external-link" viewBox="0 0 24 24">
  <path fill="currentColor" d="
    M4.2 5.2h7v2.4H6.6v9.8h9.8v-4.6h2.4v7H4.2V5.2Z"/>
  <path fill="currentColor" d="
    M13.2 4.2h6.6v6.6h-2.4V8.3l-6.1 6.1-1.7-1.7 6.1-6.1h-2.5V4.2Z"/>
</symbol><symbol id="icon-recurring" viewBox="0 0 24 24">
  <path fill="currentColor" d="
    M5.1 8.1A8.4 8.4 0 0 1 18 6.2l1.9-1.9v5.9H14l2-2a5.7 5.7 0 0 0-8.9 1.4L5.1 8.1Z"/>
  <path fill="currentColor" d="
    M18.9 15.9A8.4 8.4 0 0 1 6 17.8l-1.9 1.9v-5.9H10l-2 2a5.7 5.7 0 0 0 8.9-1.4l2 1.5Z"/>
</symbol><symbol id="icon-merchant" viewBox="0 0 24 24"><defs>
  <mask id="merchant-merchantMask">
    <rect width="24" height="24" fill="white"/>
    
    <rect x="8" y="13" width="3.2" height="5.2" rx=".5" fill="black"/>
    <rect x="13.2" y="13" width="3.1" height="3.1" rx=".5" fill="black"/>

  </mask>
</defs>
  <path fill="currentColor" mask="url(#merchant-merchantMask)" d="M5 9.2h14v10.3H5V9.2Z"/>
  <path fill="currentColor" d="
    M4.1 4.3h15.8l1 4.2c-.6 1.6-1.7 2.4-3.2 2.4-1.2 0-2.1-.45-2.7-1.35-.65.9-1.65 1.35-3 1.35s-2.35-.45-3-1.35c-.6.9-1.5 1.35-2.7 1.35-1.5 0-2.6-.8-3.2-2.4l1-4.2Z"/>
</symbol><symbol id="icon-calendar-week" viewBox="0 0 24 24"><defs>
  <mask id="calendar-week-calendarWeekMask">
    <rect width="24" height="24" fill="white"/>
    
    <circle cx="6.2" cy="12.1" r=".8" fill="black"/>
    <circle cx="8.15" cy="12.1" r=".8" fill="black"/>
    <circle cx="10.1" cy="12.1" r=".8" fill="black"/>
    <circle cx="12.05" cy="12.1" r=".8" fill="black"/>
    <circle cx="14" cy="12.1" r=".8" fill="black"/>
    <circle cx="15.95" cy="12.1" r=".8" fill="black"/>
    <circle cx="17.9" cy="12.1" r=".8" fill="black"/>
    <rect x="7.1" y="15.1" width="9.8" height="1.6" rx=".8" fill="black"/>

  </mask>
</defs>
  <rect x="3.7" y="5" width="16.6" height="15.1" rx="3.1"
        fill="currentColor" mask="url(#calendar-week-calendarWeekMask)"/>
  <rect x="6.9" y="2.5" width="2.1" height="5" rx="1.05" fill="currentColor"/>
  <rect x="15" y="2.5" width="2.1" height="5" rx="1.05" fill="currentColor"/>
</symbol><symbol id="icon-category" viewBox="0 0 24 24"><defs>
  <mask id="category-categoryMask">
    <rect width="24" height="24" fill="white"/>
    <circle cx="15.85" cy="8.15" r="1.15" fill="black"/>
  </mask>
</defs>
  <path fill="currentColor" mask="url(#category-categoryMask)" d="
    M4.2 8.1 9.1 3.2h8.1q.65 0 1.1.45l2.05 2.05q.45.45.45 1.1v8.1L15.9 19.8a2.1 2.1 0 0 1-3 0L4.2 11.1a2.1 2.1 0 0 1 0-3Z"/>
</symbol></svg>